<mxfile host="app.diagrams.net" modified="2023-05-30T13:25:07.983Z" agent="Mozilla/5.0 (Macintosh; Intel Mac OS X 10_15_7) AppleWebKit/537.36 (KHTML, like Gecko) Chrome/113.0.0.0 Safari/537.36" etag="PmztBjrVkAxNp6YWhYRx" version="21.3.5" type="github">
  <diagram name="第 1 页" id="iqY57gwvcsSjnnwYkyeo">
    <mxGraphModel dx="1011" dy="667" grid="1" gridSize="10" guides="1" tooltips="1" connect="1" arrows="1" fold="1" page="1" pageScale="1" pageWidth="827" pageHeight="1169" math="0" shadow="0">
      <root>
        <mxCell id="0" />
        <mxCell id="1" parent="0" />
        <mxCell id="gdBLNjopcYoZ7P_d02nq-1" value="" style="rounded=1;arcSize=10;dashed=1;strokeColor=#000000;fillColor=none;gradientColor=none;dashPattern=8 3 1 3;strokeWidth=2;" vertex="1" parent="1">
          <mxGeometry x="1160" y="270" width="440" height="260" as="geometry" />
        </mxCell>
        <mxCell id="gdBLNjopcYoZ7P_d02nq-2" value="" style="edgeStyle=orthogonalEdgeStyle;rounded=0;orthogonalLoop=1;jettySize=auto;html=1;entryX=0;entryY=0.5;entryDx=0;entryDy=0;" edge="1" parent="1" source="gdBLNjopcYoZ7P_d02nq-4" target="gdBLNjopcYoZ7P_d02nq-8">
          <mxGeometry relative="1" as="geometry">
            <mxPoint x="160" y="500" as="targetPoint" />
          </mxGeometry>
        </mxCell>
        <mxCell id="gdBLNjopcYoZ7P_d02nq-3" value="A.com" style="text;html=1;align=center;verticalAlign=middle;resizable=0;points=[];labelBackgroundColor=#ffffff;" vertex="1" connectable="0" parent="gdBLNjopcYoZ7P_d02nq-2">
          <mxGeometry x="0.0333" y="-3" relative="1" as="geometry">
            <mxPoint as="offset" />
          </mxGeometry>
        </mxCell>
        <mxCell id="gdBLNjopcYoZ7P_d02nq-4" value="Actor" style="shape=umlActor;verticalLabelPosition=bottom;labelBackgroundColor=#ffffff;verticalAlign=top;html=1;outlineConnect=0;" vertex="1" parent="1">
          <mxGeometry x="50" y="470" width="30" height="60" as="geometry" />
        </mxCell>
        <mxCell id="gdBLNjopcYoZ7P_d02nq-5" style="edgeStyle=orthogonalEdgeStyle;rounded=0;orthogonalLoop=1;jettySize=auto;html=1;entryX=0;entryY=0.5;entryDx=0;entryDy=0;" edge="1" parent="1" source="gdBLNjopcYoZ7P_d02nq-8" target="gdBLNjopcYoZ7P_d02nq-12">
          <mxGeometry relative="1" as="geometry">
            <mxPoint x="260" y="370" as="targetPoint" />
          </mxGeometry>
        </mxCell>
        <mxCell id="gdBLNjopcYoZ7P_d02nq-6" value="传统模式" style="text;html=1;align=center;verticalAlign=middle;resizable=0;points=[];labelBackgroundColor=#ffffff;" vertex="1" connectable="0" parent="gdBLNjopcYoZ7P_d02nq-5">
          <mxGeometry x="-0.04" y="2" relative="1" as="geometry">
            <mxPoint as="offset" />
          </mxGeometry>
        </mxCell>
        <mxCell id="gdBLNjopcYoZ7P_d02nq-7" value="consul模式" style="edgeStyle=orthogonalEdgeStyle;rounded=0;orthogonalLoop=1;jettySize=auto;html=1;entryX=0;entryY=0.5;entryDx=0;entryDy=0;" edge="1" parent="1" source="gdBLNjopcYoZ7P_d02nq-8" target="gdBLNjopcYoZ7P_d02nq-23">
          <mxGeometry relative="1" as="geometry">
            <mxPoint x="320" y="640" as="targetPoint" />
          </mxGeometry>
        </mxCell>
        <mxCell id="gdBLNjopcYoZ7P_d02nq-8" value="nginx集群" style="rounded=1;whiteSpace=wrap;html=1;" vertex="1" parent="1">
          <mxGeometry x="200" y="470" width="120" height="60" as="geometry" />
        </mxCell>
        <mxCell id="gdBLNjopcYoZ7P_d02nq-9" style="edgeStyle=orthogonalEdgeStyle;rounded=0;orthogonalLoop=1;jettySize=auto;html=1;entryX=0;entryY=0.5;entryDx=0;entryDy=0;strokeColor=#33FF33;strokeWidth=4;" edge="1" parent="1" source="gdBLNjopcYoZ7P_d02nq-12" target="gdBLNjopcYoZ7P_d02nq-17">
          <mxGeometry relative="1" as="geometry" />
        </mxCell>
        <mxCell id="gdBLNjopcYoZ7P_d02nq-10" style="edgeStyle=orthogonalEdgeStyle;rounded=0;orthogonalLoop=1;jettySize=auto;html=1;entryX=0;entryY=0.5;entryDx=0;entryDy=0;strokeColor=#33FF33;strokeWidth=4;" edge="1" parent="1" source="gdBLNjopcYoZ7P_d02nq-12" target="gdBLNjopcYoZ7P_d02nq-19">
          <mxGeometry relative="1" as="geometry" />
        </mxCell>
        <mxCell id="gdBLNjopcYoZ7P_d02nq-11" style="edgeStyle=orthogonalEdgeStyle;rounded=0;orthogonalLoop=1;jettySize=auto;html=1;entryX=0;entryY=0.5;entryDx=0;entryDy=0;strokeColor=#33FF33;strokeWidth=4;" edge="1" parent="1" source="gdBLNjopcYoZ7P_d02nq-12" target="gdBLNjopcYoZ7P_d02nq-20">
          <mxGeometry relative="1" as="geometry" />
        </mxCell>
        <mxCell id="gdBLNjopcYoZ7P_d02nq-12" value="&lt;span style=&quot;white-space: normal&quot;&gt;A_ip+port&lt;br&gt;&lt;/span&gt;B_ip+port&lt;br&gt;C_ip+port&lt;span style=&quot;white-space: normal&quot;&gt;&lt;br&gt;&lt;/span&gt;" style="text;html=1;strokeColor=none;fillColor=none;align=center;verticalAlign=middle;whiteSpace=wrap;rounded=0;" vertex="1" parent="1">
          <mxGeometry x="320" y="270" width="110" height="80" as="geometry" />
        </mxCell>
        <mxCell id="gdBLNjopcYoZ7P_d02nq-13" style="edgeStyle=orthogonalEdgeStyle;rounded=0;orthogonalLoop=1;jettySize=auto;html=1;entryX=0;entryY=0.5;entryDx=0;entryDy=0;" edge="1" parent="1" target="gdBLNjopcYoZ7P_d02nq-15">
          <mxGeometry relative="1" as="geometry">
            <mxPoint x="360" y="660" as="sourcePoint" />
            <Array as="points">
              <mxPoint x="360" y="800" />
            </Array>
          </mxGeometry>
        </mxCell>
        <mxCell id="gdBLNjopcYoZ7P_d02nq-14" value="订阅#500ms同步一次信息" style="text;html=1;align=center;verticalAlign=middle;resizable=0;points=[];labelBackgroundColor=#ffffff;" vertex="1" connectable="0" parent="gdBLNjopcYoZ7P_d02nq-13">
          <mxGeometry x="-0.3048" y="1" relative="1" as="geometry">
            <mxPoint as="offset" />
          </mxGeometry>
        </mxCell>
        <mxCell id="gdBLNjopcYoZ7P_d02nq-15" value="Consul注册中心" style="ellipse;whiteSpace=wrap;html=1;" vertex="1" parent="1">
          <mxGeometry x="580" y="770" width="120" height="80" as="geometry" />
        </mxCell>
        <mxCell id="gdBLNjopcYoZ7P_d02nq-16" style="edgeStyle=orthogonalEdgeStyle;rounded=0;orthogonalLoop=1;jettySize=auto;html=1;entryX=0.092;entryY=0.488;entryDx=0;entryDy=0;entryPerimeter=0;strokeColor=#007FFF;strokeWidth=2;" edge="1" parent="1" source="gdBLNjopcYoZ7P_d02nq-17" target="gdBLNjopcYoZ7P_d02nq-29">
          <mxGeometry relative="1" as="geometry">
            <mxPoint x="730" y="310" as="targetPoint" />
            <Array as="points">
              <mxPoint x="850" y="310" />
              <mxPoint x="850" y="399" />
            </Array>
          </mxGeometry>
        </mxCell>
        <mxCell id="gdBLNjopcYoZ7P_d02nq-17" value="&lt;span style=&quot;white-space: normal&quot;&gt;A_ip+port&lt;/span&gt;" style="shape=cylinder;whiteSpace=wrap;html=1;boundedLbl=1;backgroundOutline=1;" vertex="1" parent="1">
          <mxGeometry x="630" y="290" width="60" height="40" as="geometry" />
        </mxCell>
        <mxCell id="gdBLNjopcYoZ7P_d02nq-18" style="edgeStyle=orthogonalEdgeStyle;rounded=0;orthogonalLoop=1;jettySize=auto;html=1;entryX=0.067;entryY=0.488;entryDx=0;entryDy=0;entryPerimeter=0;strokeColor=#3399FF;strokeWidth=2;exitX=1;exitY=0.5;exitDx=0;exitDy=0;" edge="1" parent="1" source="gdBLNjopcYoZ7P_d02nq-20" target="gdBLNjopcYoZ7P_d02nq-29">
          <mxGeometry relative="1" as="geometry">
            <mxPoint x="690" y="400" as="sourcePoint" />
            <mxPoint x="929.2" y="404" as="targetPoint" />
            <Array as="points">
              <mxPoint x="850" y="490" />
              <mxPoint x="850" y="400" />
              <mxPoint x="929" y="400" />
              <mxPoint x="929" y="399" />
            </Array>
          </mxGeometry>
        </mxCell>
        <mxCell id="gdBLNjopcYoZ7P_d02nq-19" value="&lt;span style=&quot;white-space: normal&quot;&gt;B_ip+port&lt;/span&gt;" style="shape=cylinder;whiteSpace=wrap;html=1;boundedLbl=1;backgroundOutline=1;" vertex="1" parent="1">
          <mxGeometry x="630" y="380" width="60" height="40" as="geometry" />
        </mxCell>
        <mxCell id="gdBLNjopcYoZ7P_d02nq-20" value="&lt;span style=&quot;white-space: normal&quot;&gt;C_ip+port&lt;/span&gt;" style="shape=cylinder;whiteSpace=wrap;html=1;boundedLbl=1;backgroundOutline=1;" vertex="1" parent="1">
          <mxGeometry x="630" y="470" width="60" height="40" as="geometry" />
        </mxCell>
        <mxCell id="gdBLNjopcYoZ7P_d02nq-21" style="edgeStyle=orthogonalEdgeStyle;rounded=0;orthogonalLoop=1;jettySize=auto;html=1;entryX=0;entryY=0.5;entryDx=0;entryDy=0;" edge="1" parent="1" source="gdBLNjopcYoZ7P_d02nq-23" target="gdBLNjopcYoZ7P_d02nq-24">
          <mxGeometry relative="1" as="geometry">
            <mxPoint x="480" y="635" as="targetPoint" />
          </mxGeometry>
        </mxCell>
        <mxCell id="gdBLNjopcYoZ7P_d02nq-22" value="根据返回信息生成配置文件" style="text;html=1;align=center;verticalAlign=middle;resizable=0;points=[];labelBackgroundColor=#ffffff;" vertex="1" connectable="0" parent="gdBLNjopcYoZ7P_d02nq-21">
          <mxGeometry x="-0.1333" y="-2" relative="1" as="geometry">
            <mxPoint as="offset" />
          </mxGeometry>
        </mxCell>
        <mxCell id="gdBLNjopcYoZ7P_d02nq-23" value="&lt;span style=&quot;text-align: left ; white-space: nowrap&quot;&gt;consul服务地址&lt;/span&gt;" style="rounded=1;whiteSpace=wrap;html=1;" vertex="1" parent="1">
          <mxGeometry x="310" y="605" width="120" height="60" as="geometry" />
        </mxCell>
        <mxCell id="gdBLNjopcYoZ7P_d02nq-24" value="&lt;span style=&quot;white-space: normal&quot;&gt;A_ip+port&lt;br&gt;&lt;/span&gt;&lt;span style=&quot;white-space: normal&quot;&gt;C_ip+port&lt;/span&gt;&lt;br style=&quot;white-space: normal&quot;&gt;&lt;span style=&quot;white-space: normal&quot;&gt;D_ip+port&lt;br&gt;pod_1+port&lt;br&gt;````&lt;br&gt;pod_11+port&lt;br&gt;&lt;/span&gt;" style="rounded=1;whiteSpace=wrap;html=1;" vertex="1" parent="1">
          <mxGeometry x="610" y="605" width="130" height="95" as="geometry" />
        </mxCell>
        <mxCell id="gdBLNjopcYoZ7P_d02nq-25" style="edgeStyle=orthogonalEdgeStyle;rounded=0;orthogonalLoop=1;jettySize=auto;html=1;strokeColor=#007FFF;strokeWidth=2;" edge="1" parent="1" source="gdBLNjopcYoZ7P_d02nq-26" target="gdBLNjopcYoZ7P_d02nq-29">
          <mxGeometry relative="1" as="geometry">
            <Array as="points">
              <mxPoint x="850" y="560" />
              <mxPoint x="850" y="400" />
            </Array>
          </mxGeometry>
        </mxCell>
        <mxCell id="gdBLNjopcYoZ7P_d02nq-26" value="&lt;span style=&quot;white-space: normal&quot;&gt;D_ip+port&lt;/span&gt;" style="shape=cylinder;whiteSpace=wrap;html=1;boundedLbl=1;backgroundOutline=1;" vertex="1" parent="1">
          <mxGeometry x="630" y="540" width="60" height="40" as="geometry" />
        </mxCell>
        <mxCell id="gdBLNjopcYoZ7P_d02nq-27" style="edgeStyle=orthogonalEdgeStyle;rounded=0;orthogonalLoop=1;jettySize=auto;html=1;entryX=1;entryY=0.5;entryDx=0;entryDy=0;" edge="1" parent="1" source="gdBLNjopcYoZ7P_d02nq-29" target="gdBLNjopcYoZ7P_d02nq-15">
          <mxGeometry relative="1" as="geometry">
            <Array as="points">
              <mxPoint x="970" y="800" />
            </Array>
          </mxGeometry>
        </mxCell>
        <mxCell id="gdBLNjopcYoZ7P_d02nq-28" value="新服务注册-配置更新" style="text;html=1;align=center;verticalAlign=middle;resizable=0;points=[];labelBackgroundColor=#ffffff;fontColor=#FF0000;" vertex="1" connectable="0" parent="gdBLNjopcYoZ7P_d02nq-27">
          <mxGeometry x="0.4582" relative="1" as="geometry">
            <mxPoint as="offset" />
          </mxGeometry>
        </mxCell>
        <mxCell id="gdBLNjopcYoZ7P_d02nq-29" value="服务注册接口" style="ellipse;shape=cloud;whiteSpace=wrap;html=1;" vertex="1" parent="1">
          <mxGeometry x="910" y="360" width="120" height="80" as="geometry" />
        </mxCell>
        <mxCell id="gdBLNjopcYoZ7P_d02nq-30" value="" style="endArrow=classic;html=1;exitX=1;exitY=0.617;exitDx=0;exitDy=0;exitPerimeter=0;entryX=1;entryY=0.7;entryDx=0;entryDy=0;fontColor=#FF0000;strokeColor=#FF0000;strokeWidth=4;edgeStyle=orthogonalEdgeStyle;dashed=1;" edge="1" parent="1" source="gdBLNjopcYoZ7P_d02nq-24" target="gdBLNjopcYoZ7P_d02nq-17">
          <mxGeometry width="50" height="50" relative="1" as="geometry">
            <mxPoint x="830" y="670" as="sourcePoint" />
            <mxPoint x="880" y="620" as="targetPoint" />
            <Array as="points">
              <mxPoint x="790" y="664" />
              <mxPoint x="790" y="318" />
            </Array>
          </mxGeometry>
        </mxCell>
        <mxCell id="gdBLNjopcYoZ7P_d02nq-31" value="" style="endArrow=classic;html=1;exitX=1.025;exitY=0.65;exitDx=0;exitDy=0;exitPerimeter=0;entryX=1;entryY=0.5;entryDx=0;entryDy=0;fontColor=#FF0000;strokeColor=#FF0000;strokeWidth=4;edgeStyle=orthogonalEdgeStyle;dashed=1;" edge="1" parent="1" source="gdBLNjopcYoZ7P_d02nq-24" target="gdBLNjopcYoZ7P_d02nq-20">
          <mxGeometry width="50" height="50" relative="1" as="geometry">
            <mxPoint x="780" y="652.02" as="sourcePoint" />
            <mxPoint x="700" y="328" as="targetPoint" />
            <Array as="points">
              <mxPoint x="780" y="667" />
              <mxPoint x="780" y="490" />
            </Array>
          </mxGeometry>
        </mxCell>
        <mxCell id="gdBLNjopcYoZ7P_d02nq-32" value="" style="endArrow=classic;html=1;entryX=1;entryY=0.3;entryDx=0;entryDy=0;fontColor=#FF0000;strokeColor=#FF0000;strokeWidth=4;edgeStyle=orthogonalEdgeStyle;dashed=1;" edge="1" parent="1" target="gdBLNjopcYoZ7P_d02nq-26">
          <mxGeometry width="50" height="50" relative="1" as="geometry">
            <mxPoint x="780" y="650" as="sourcePoint" />
            <mxPoint x="700" y="500" as="targetPoint" />
            <Array as="points">
              <mxPoint x="780" y="651" />
              <mxPoint x="750" y="651" />
              <mxPoint x="750" y="552" />
            </Array>
          </mxGeometry>
        </mxCell>
        <mxCell id="gdBLNjopcYoZ7P_d02nq-33" value="" style="edgeStyle=orthogonalEdgeStyle;rounded=0;orthogonalLoop=1;jettySize=auto;html=1;entryX=0.875;entryY=0.5;entryDx=0;entryDy=0;entryPerimeter=0;" edge="1" parent="1" source="gdBLNjopcYoZ7P_d02nq-1" target="gdBLNjopcYoZ7P_d02nq-29">
          <mxGeometry relative="1" as="geometry">
            <mxPoint x="1080" y="400" as="targetPoint" />
          </mxGeometry>
        </mxCell>
        <mxCell id="gdBLNjopcYoZ7P_d02nq-34" value="" style="edgeStyle=orthogonalEdgeStyle;rounded=1;orthogonalLoop=1;jettySize=auto;html=1;" edge="1" parent="1" source="gdBLNjopcYoZ7P_d02nq-35" target="gdBLNjopcYoZ7P_d02nq-1">
          <mxGeometry relative="1" as="geometry" />
        </mxCell>
        <mxCell id="gdBLNjopcYoZ7P_d02nq-35" value="容器平台" style="text;html=1;align=center;verticalAlign=middle;resizable=0;points=[];autosize=1;" vertex="1" parent="1">
          <mxGeometry x="1350" y="220" width="60" height="20" as="geometry" />
        </mxCell>
        <mxCell id="gdBLNjopcYoZ7P_d02nq-36" value="pod_1" style="shape=datastore;whiteSpace=wrap;html=1;" vertex="1" parent="1">
          <mxGeometry x="1180" y="410" width="60" height="60" as="geometry" />
        </mxCell>
        <mxCell id="gdBLNjopcYoZ7P_d02nq-37" value="pod_xx" style="shape=datastore;whiteSpace=wrap;html=1;" vertex="1" parent="1">
          <mxGeometry x="1500" y="410" width="60" height="60" as="geometry" />
        </mxCell>
        <mxCell id="gdBLNjopcYoZ7P_d02nq-38" value="pod_xx" style="shape=datastore;whiteSpace=wrap;html=1;" vertex="1" parent="1">
          <mxGeometry x="1430" y="410" width="60" height="60" as="geometry" />
        </mxCell>
        <mxCell id="gdBLNjopcYoZ7P_d02nq-39" style="edgeStyle=orthogonalEdgeStyle;rounded=0;orthogonalLoop=1;jettySize=auto;html=1;entryX=0;entryY=0.5;entryDx=0;entryDy=0;shape=link;" edge="1" parent="1" source="gdBLNjopcYoZ7P_d02nq-40" target="gdBLNjopcYoZ7P_d02nq-38">
          <mxGeometry relative="1" as="geometry" />
        </mxCell>
        <mxCell id="gdBLNjopcYoZ7P_d02nq-40" value="pod_2" style="shape=datastore;whiteSpace=wrap;html=1;" vertex="1" parent="1">
          <mxGeometry x="1260" y="410" width="60" height="60" as="geometry" />
        </mxCell>
        <mxCell id="gdBLNjopcYoZ7P_d02nq-41" value="容器集群 服务的快速扩容/动态伸缩" style="text;html=1;strokeColor=none;fillColor=none;align=center;verticalAlign=middle;whiteSpace=wrap;rounded=0;" vertex="1" parent="1">
          <mxGeometry x="1270.5" y="300" width="219" height="20" as="geometry" />
        </mxCell>
      </root>
    </mxGraphModel>
  </diagram>
</mxfile>
